HIERARCHY
ROOT Root
{
  OFFSET 0.0 0.0 0.0
  CHANNELS 6 Xposition Yposition Zposition Zrotation Yrotation Xrotation
  JOINT Hips
  {
    OFFSET 0.0 100.0 0.0
    CHANNELS 6 Xposition Yposition Zposition Zrotation Yrotation Xrotation
    JOINT Spine1
    {
      OFFSET -0.013727 5.003763 -0.053727
      CHANNELS 3 Zrotation Yrotation Xrotation
      JOINT Spine2
      {
        OFFSET -0.0 7.125301 -0.029825
        CHANNELS 3 Zrotation Yrotation Xrotation
        JOINT Chest
        {
          OFFSET -1e-06 7.550063 -0.815971
          CHANNELS 3 Zrotation Yrotation Xrotation
          JOINT Neck1
          {
            OFFSET -0.181677 26.311295 -0.553348
            CHANNELS 3 Zrotation Yrotation Xrotation
            JOINT Neck2
            {
              OFFSET -3e-06 7.709397 2.302585
              CHANNELS 3 Zrotation Yrotation Xrotation
              JOINT Head
              {
                OFFSET -5e-06 6.128916 1.953709
                CHANNELS 3 Zrotation Yrotation Xrotation
                JOINT HeadEnd
                {
                  OFFSET 0.003598 16.065403 -1.835379
                  CHANNELS 3 Zrotation Yrotation Xrotation
                }
                JOINT Jaw
                {
                  OFFSET 0.002637 0.475592 3.094941
                  CHANNELS 3 Zrotation Yrotation Xrotation
                }
                JOINT LeftEye
                {
                  OFFSET 3.206381 5.380205 7.586883
                  CHANNELS 3 Zrotation Yrotation Xrotation
                }
                JOINT RightEye
                {
                  OFFSET -3.22244 5.361869 7.558234
                  CHANNELS 3 Zrotation Yrotation Xrotation
                }
              }
            }
          }
          JOINT LeftShoulder
          {
            OFFSET 1.621652 23.237164 5.113413
            CHANNELS 3 Zrotation Yrotation Xrotation
            JOINT LeftArm
            {
              OFFSET 14.919846 2e-06 -5.502326
              CHANNELS 3 Zrotation Yrotation Xrotation
              JOINT LeftForeArm
              {
                OFFSET 28.739307 0.0 -0.002588
                CHANNELS 3 Zrotation Yrotation Xrotation
                JOINT LeftHand
                {
                  OFFSET 27.093981 -1e-06 0.002609
                  CHANNELS 3 Zrotation Yrotation Xrotation
                  JOINT LeftHandThumb1
                  {
                    OFFSET 2.276482 -1.392045 3.191413
                    CHANNELS 3 Zrotation Yrotation Xrotation
                    JOINT LeftHandThumb2
                    {
                      OFFSET 4.012836 -1.828127 1.641654
                      CHANNELS 3 Zrotation Yrotation Xrotation
                      JOINT LeftHandThumb3
                      {
                        OFFSET 2.798515 0.0 -3e-06
                        CHANNELS 3 Zrotation Yrotation Xrotation
                        JOINT LeftHandThumbEnd
                        {
                          OFFSET 3.180793 -4e-06 4e-06
                          CHANNELS 3 Zrotation Yrotation Xrotation
                        }
                      }
                    }
                  }
                  JOINT LeftHandIndex1
                  {
                    OFFSET 3.247555 -0.531998 2.296169
                    CHANNELS 3 Zrotation Yrotation Xrotation
                    JOINT LeftHandIndex2
                    {
                      OFFSET 6.364578 0.01206 0.1786
                      CHANNELS 3 Zrotation Yrotation Xrotation
                      JOINT LeftHandIndex3
                      {
                        OFFSET 3.662364 0.0 0.0
                        CHANNELS 3 Zrotation Yrotation Xrotation
                        JOINT LeftHandIndex4
                        {
                          OFFSET 2.329242 4e-06 4e-06
                          CHANNELS 3 Zrotation Yrotation Xrotation
                          JOINT LeftHandIndexEnd
                          {
                            OFFSET 2.759615 -0.180537 -0.113024
                            CHANNELS 3 Zrotation Yrotation Xrotation
                          }
                        }
                      }
                    }
                  }
                  JOINT LeftHandMiddle1
                  {
                    OFFSET 3.163495 0.240981 1.000332
                    CHANNELS 3 Zrotation Yrotation Xrotation
                    JOINT LeftHandMiddle2
                    {
                      OFFSET 6.19078 -0.259278 -1.002548
                      CHANNELS 3 Zrotation Yrotation Xrotation
                      JOINT LeftHandMiddle3
                      {
                        OFFSET 4.35652 -4e-06 -1e-06
                        CHANNELS 3 Zrotation Yrotation Xrotation
                        JOINT LeftHandMiddle4
                        {
                          OFFSET 2.996877 -8e-06 0.0
                          CHANNELS 3 Zrotation Yrotation Xrotation
                          JOINT LeftHandMiddleEnd
                          {
                            OFFSET 2.304287 -0.294569 -0.031741
                            CHANNELS 3 Zrotation Yrotation Xrotation
                          }
                        }
                      }
                    }
                  }
                  JOINT LeftHandRing1
                  {
                    OFFSET 2.882643 -0.053652 -0.322543
                    CHANNELS 3 Zrotation Yrotation Xrotation
                    JOINT LeftHandRing2
                    {
                      OFFSET 5.854541 -0.486202 -1.373841
                      CHANNELS 3 Zrotation Yrotation Xrotation
                      JOINT LeftHandRing3
                      {
                        OFFSET 4.350578 0.0 3e-06
                        CHANNELS 3 Zrotation Yrotation Xrotation
                        JOINT LeftHandRing4
                        {
                          OFFSET 2.651321 7e-06 2e-06
                          CHANNELS 3 Zrotation Yrotation Xrotation
                          JOINT LeftHandRingEnd
                          {
                            OFFSET 1.936105 0.077687 -7.1e-05
                            CHANNELS 3 Zrotation Yrotation Xrotation
                          }
                        }
                      }
                    }
                  }
                  JOINT LeftHandPinky1
                  {
                    OFFSET 2.8655 -0.310005 -1.600378
                    CHANNELS 3 Zrotation Yrotation Xrotation
                    JOINT LeftHandPinky2
                    {
                      OFFSET 5.087849 -1.331141 -1.77123
                      CHANNELS 3 Zrotation Yrotation Xrotation
                      JOINT LeftHandPinky3
                      {
                        OFFSET 3.070974 4e-06 0.0
                        CHANNELS 3 Zrotation Yrotation Xrotation
                        JOINT LeftHandPinky4
                        {
                          OFFSET 1.549672 0.0 1e-06
                          CHANNELS 3 Zrotation Yrotation Xrotation
                          JOINT LeftHandPinkyEnd
                          {
                            OFFSET 1.944893 -0.157802 0.057219
                            CHANNELS 3 Zrotation Yrotation Xrotation
                          }
                        }
                      }
                    }
                  }
                }
              }
            }
          }
          JOINT RightShoulder
          {
            OFFSET -1.380118 23.180309 5.214158
            CHANNELS 3 Zrotation Yrotation Xrotation
            JOINT RightArm
            {
              OFFSET -15.037196 1.2e-05 -5.545604
              CHANNELS 3 Zrotation Yrotation Xrotation
              JOINT RightForeArm
              {
                OFFSET -28.736639 2e-06 -0.002597
                CHANNELS 3 Zrotation Yrotation Xrotation
                JOINT RightHand
                {
                  OFFSET -27.133619 -0.0 0.002613
                  CHANNELS 3 Zrotation Yrotation Xrotation
                  JOINT RightHandThumb1
                  {
                    OFFSET -2.274032 -1.383988 3.163127
                    CHANNELS 3 Zrotation Yrotation Xrotation
                    JOINT RightHandThumb2
                    {
                      OFFSET -4.011429 -1.827466 1.640914
                      CHANNELS 3 Zrotation Yrotation Xrotation
                      JOINT RightHandThumb3
                      {
                        OFFSET -2.794935 -4e-06 -3e-06
                        CHANNELS 3 Zrotation Yrotation Xrotation
                        JOINT RightHandThumbEnd
                        {
                          OFFSET -3.183852 4e-06 1e-06
                          CHANNELS 3 Zrotation Yrotation Xrotation
                        }
                      }
                    }
                  }
                  JOINT RightHandIndex1
                  {
                    OFFSET -3.253266 -0.520057 2.282866
                    CHANNELS 3 Zrotation Yrotation Xrotation
                    JOINT RightHandIndex2
                    {
                      OFFSET -6.341917 0.012471 0.178266
                      CHANNELS 3 Zrotation Yrotation Xrotation
                      JOINT RightHandIndex3
                      {
                        OFFSET -3.654871 -8e-06 -0.0
                        CHANNELS 3 Zrotation Yrotation Xrotation
                        JOINT RightHandIndex4
                        {
                          OFFSET -2.327586 0.0 1e-06
                          CHANNELS 3 Zrotation Yrotation Xrotation
                          JOINT RightHandIndexEnd
                          {
                            OFFSET -2.76179 -0.180656 -0.113078
                            CHANNELS 3 Zrotation Yrotation Xrotation
                          }
                        }
                      }
                    }
                  }
                  JOINT RightHandMiddle1
                  {
                    OFFSET -3.168106 0.246593 1.00103
                    CHANNELS 3 Zrotation Yrotation Xrotation
                    JOINT RightHandMiddle2
                    {
                      OFFSET -6.180828 -0.258836 -1.000895
                      CHANNELS 3 Zrotation Yrotation Xrotation
                      JOINT RightHandMiddle3
                      {
                        OFFSET -4.348901 0.0 -0.0
                        CHANNELS 3 Zrotation Yrotation Xrotation
                        JOINT RightHandMiddle4
                        {
                          OFFSET -3.00024 -4e-06 -2e-06
                          CHANNELS 3 Zrotation Yrotation Xrotation
                          JOINT RightHandMiddleEnd
                          {
                            OFFSET -2.30252 -0.29437 -0.031706
                            CHANNELS 3 Zrotation Yrotation Xrotation
                          }
                        }
                      }
                    }
                  }
                  JOINT RightHandRing1
                  {
                    OFFSET -2.88569 -0.067952 -0.308858
                    CHANNELS 3 Zrotation Yrotation Xrotation
                    JOINT RightHandRing2
                    {
                      OFFSET -5.854198 -0.48613 -1.373731
                      CHANNELS 3 Zrotation Yrotation Xrotation
                      JOINT RightHandRing3
                      {
                        OFFSET -4.33881 -4e-06 -0.0
                        CHANNELS 3 Zrotation Yrotation Xrotation
                        JOINT RightHandRing4
                        {
                          OFFSET -2.654903 -4e-06 4e-06
                          CHANNELS 3 Zrotation Yrotation Xrotation
                          JOINT RightHandRingEnd
                          {
                            OFFSET -1.933568 0.077527 -5.2e-05
                            CHANNELS 3 Zrotation Yrotation Xrotation
                          }
                        }
                      }
                    }
                  }
                  JOINT RightHandPinky1
                  {
                    OFFSET -2.866425 -0.342796 -1.584145
                    CHANNELS 3 Zrotation Yrotation Xrotation
                    JOINT RightHandPinky2
                    {
                      OFFSET -5.091371 -1.332055 -1.772385
                      CHANNELS 3 Zrotation Yrotation Xrotation
                      JOINT RightHandPinky3
                      {
                        OFFSET -3.062664 -4e-06 1e-06
                        CHANNELS 3 Zrotation Yrotation Xrotation
                        JOINT RightHandPinky4
                        {
                          OFFSET -1.546529 4e-06 -2e-06
                          CHANNELS 3 Zrotation Yrotation Xrotation
                          JOINT RightHandPinkyEnd
                          {
                            OFFSET -1.945119 -0.157718 0.057211
                            CHANNELS 3 Zrotation Yrotation Xrotation
                          }
                        }
                      }
                    }
                  }
                }
              }
            }
          }
        }
      }
    }
    JOINT LeftLeg
    {
      OFFSET 10.043214 -8.434526 2.595655
      CHANNELS 3 Zrotation Yrotation Xrotation
      JOINT LeftShin
      {
        OFFSET -1e-06 -43.221752 -0.802913
        CHANNELS 3 Zrotation Yrotation Xrotation
        JOINT LeftFoot
        {
          OFFSET 1e-06 -42.155094 -3.481523
          CHANNELS 3 Zrotation Yrotation Xrotation
          JOINT LeftToeBase
          {
            OFFSET 0.0 -5.059472 13.231529
            CHANNELS 3 Zrotation Yrotation Xrotation
            JOINT LeftToeEnd
            {
              OFFSET -0.009607 -1.647619 6.513017
              CHANNELS 3 Zrotation Yrotation Xrotation
            }
          }
        }
      }
    }
    JOINT RightLeg
    {
      OFFSET -10.047278 -8.29526 2.620317
      CHANNELS 3 Zrotation Yrotation Xrotation
      JOINT RightShin
      {
        OFFSET 1e-06 -43.362206 -0.805556
        CHANNELS 3 Zrotation Yrotation Xrotation
        JOINT RightFoot
        {
          OFFSET 2e-06 -42.117393 -3.478398
          CHANNELS 3 Zrotation Yrotation Xrotation
          JOINT RightToeBase
          {
            OFFSET -0.0 -5.079609 13.284196
            CHANNELS 3 Zrotation Yrotation Xrotation
            JOINT RightToeEnd
            {
              OFFSET 0.009532 -1.634378 6.460591
              CHANNELS 3 Zrotation Yrotation Xrotation
            }
          }
        }
      }
    }
  }
}
MOTION
Frames: 4
Frame Time: 0.03333333333333333
0.0 0.0 0.0 0.0 -0.0 0.0 -7.786156 96.796127 47.96212 3.942676 -6.229069 6.395024 -0.985464 1.066317 1.422648 -1.03214 2.953865 -4.250817 -0.953998 1.726506 10.203428 -4.279323 3.23025 -4.001827 -0.606192 0.099742 -3.589585 1.904564 -2.880706 -12.340392 7.7e-05 -2.2e-05 6e-06 0.007965 0.163481 -0.01748 0.710527 -3.622325 -10.920295 -0.706683 3.942007 -10.922879 -13.628819 2.228108 19.64764 -60.994682 8.659127 11.14 -1.164289 -19.63681 0.159595 4.309018 0.865273 -21.191137 -5.882185 9.861382 0.70249 -10.93692 -0.36066 7.156155 0.0 8.774782 -3e-06 -16.297359 17.724548 6.225309 -1.844022 2.498501 -2.507264 -10.163579 4.678921 4.621126 -20.976019 1e-05 4.1e-05 -21.226332 2.451702 -3.593955 0.0 -5e-06 -3e-06 -1.362672 2.240752 -0.746309 -21.334879 0.584955 3.008346 -13.821213 8e-06 2.8e-05 -23.887243 -0.249042 -0.839432 -60.767109 2.483871 -0.578749 -0.294012 1.679626 0.833268 -14.218183 0.093275 1.300596 -34.212055 -0.287521 0.967224 -20.033266 0.964571 1.212871 1e-06 1e-06 -0.0 -3.440358 0.78815 0.5017 -15.92817 -3.167219 2.999695 -6.338828 3e-06 1.3e-05 -18.123487 3.64818 -4.905634 -3e-06 0.0 -2e-06 9.355435 13.125865 19.929646 64.243607 16.922689 18.161829 -0.57285 36.295189 -0.368034 -16.622091 1.234194 6.303309 2.243493 -5.255189 -3.180388 14.282867 -0.826585 6.95243 -3e-05 -12.69057 1.2e-05 16.47052 -18.117292 2.400057 1.665662 -1.955914 -2.878285 4.727776 -4.170563 4.993931 11.020488 2.4e-05 -7e-06 12.10901 -3.735662 -2.866773 -1e-06 -0.0 -2e-06 1.291966 -1.928512 -1.498061 14.800088 0.567466 3.865592 14.242506 -1.341703 -6.660628 19.631889 0.143999 -0.648222 50.490379 -0.571803 -6.259798 0.353006 -1.511105 -0.031914 20.222746 3.684305 2.316608 18.787197 3.9e-05 -1e-06 10.751604 -0.479851 1.397904 -1e-06 1e-06 0.0 3.273736 0.306026 -0.580066 21.486807 11.83032 2.266085 8.162889 1.2e-05 -4e-06 18.398998 -3.79893 -4.940535 1e-06 -2e-06 -1e-06 -2.229675 3.948609 -50.122639 -0.35044 -0.230612 26.173611 -10.107548 6.873342 -7.005638 1.678837 -1.939821 -6.697801 0.0 0.0 4e-06 -6.221561 -2.702228 9.426981 -0.22917 0.587604 18.61895 2.834415 -0.838553 -3.49985 -1.546347 0.812905 -23.152613 0.0 -0.0 -0.0 
0.0 0.0 0.0 0.0 -0.0 0.0 -6.942452 98.573471 54.078354 2.893425 -7.931718 6.126086 -0.345061 1.255855 0.043353 -0.88166 3.2397 -4.819049 -0.494878 2.108389 9.708274 -4.188449 3.28872 -2.228756 -0.428499 0.418452 -3.645103 1.534857 -2.252429 -10.685901 7.7e-05 -2.2e-05 6e-06 0.006963 0.146825 -0.011787 0.698422 -3.628561 -10.849633 -0.695819 3.912035 -10.854574 -12.716008 3.502122 19.643103 -62.792477 11.821174 11.519776 -1.293077 -18.582838 0.198713 3.50264 0.22219 -22.632755 -5.882181 9.861393 0.702611 -10.936894 -0.360653 7.156222 -4e-06 8.774782 5e-06 -16.348518 17.982441 6.209805 -1.844028 2.498501 -2.507272 -10.16361 4.678931 4.621118 -20.976074 2.9e-05 3.1e-05 -21.226414 2.451719 -3.593979 0.0 -8e-06 1e-06 -1.362686 2.240755 -0.74632 -21.334908 0.58497 3.00833 -13.821248 1.8e-05 1.8e-05 -23.887337 -0.249031 -0.839471 -60.95924 2.537663 -0.776472 -0.294037 1.679625 0.833257 -14.218189 0.093285 1.300583 -34.212151 -0.287498 0.967193 -20.033302 0.964583 1.212851 -1e-06 0.0 -0.0 -3.440407 0.788154 0.501679 -15.928148 -3.167204 2.999689 -6.338841 7e-06 1e-05 -18.12356 3.648188 -4.905666 -3e-06 -1e-06 -0.0 8.340297 13.274045 19.931255 65.964478 15.773241 18.506752 -0.798712 38.731083 -0.507359 -16.37108 2.385863 6.477938 2.243594 -5.255058 -3.18016 14.282884 -0.826614 6.952502 -4e-05 -12.690588 -0.0 16.465773 -18.222374 2.426255 1.665657 -1.955914 -2.878299 4.727765 -4.170565 4.993923 11.02049 3.6e-05 1.3e-05 12.108989 -3.735663 -2.866771 -0.0 -0.0 -3e-06 1.291947 -1.928527 -1.498085 14.800114 0.567492 3.865617 14.2425 -1.341695 -6.66063 19.631907 0.14401 -0.648164 50.629471 -0.652108 -6.285111 0.352981 -1.511121 -0.031937 20.222778 3.684333 2.316646 18.787212 4.6e-05 4.7e-05 10.751616 -0.479856 1.397941 -1e-06 1e-06 -3e-06 3.273709 0.306019 -0.580091 21.486856 11.830365 2.266124 8.162906 1.8e-05 2.3e-05 18.399038 -3.798944 -4.940496 2e-06 -0.0 -2e-06 -0.772709 5.51672 -45.597279 -0.347078 -0.26269 17.294291 -9.646705 7.71296 -3.417246 1.658288 -1.969898 -6.070138 0.0 0.0 6e-06 -7.209816 -2.862424 13.121537 -0.112998 0.659377 14.552649 2.637961 0.906471 10.707915 -1.508133 0.668684 -29.504086 -0.0 -0.0 2e-06 
0.0 0.0 0.0 0.0 -0.0 0.0 -6.105567 99.672577 60.053329 1.699869 -9.579967 5.560107 0.412234 1.327207 -1.080305 -0.733178 3.464696 -5.266658 -0.011615 2.371308 9.320357 -4.081092 3.36612 -0.692314 -0.232232 0.692543 -3.683536 1.192185 -1.640331 -8.88833 7.7e-05 -2.2e-05 6e-06 0.00986 0.114563 -0.002221 0.694679 -3.646065 -10.73555 -0.685986 3.862318 -10.73468 -12.105734 4.651847 19.703354 -63.780197 14.926461 12.485906 -1.606397 -18.410891 0.284651 2.312243 -0.555962 -22.411802 -5.882098 9.861221 0.702586 -10.936829 -0.360512 7.156227 -4e-06 8.77486 -6e-06 -16.523563 18.058458 6.112864 -1.844033 2.498505 -2.507278 -10.163606 4.678968 4.621092 -20.976055 -1.1e-05 -7e-06 -21.226376 2.451713 -3.594066 -1e-06 -8e-06 -3e-06 -1.362685 2.240835 -0.746321 -21.334929 0.584871 3.00832 -13.82124 -5e-06 -5e-06 -23.887316 -0.24909 -0.839526 -61.137032 2.60768 -0.994005 -0.294031 1.679738 0.83326 -14.218212 0.093163 1.300577 -34.212124 -0.287578 0.967158 -20.033274 0.964528 1.212854 -0.0 -1e-06 -1e-06 -3.440403 0.788303 0.50165 -15.928172 -3.167398 2.999721 -6.338838 -1e-06 -2e-06 -18.123554 3.648185 -4.905731 -6e-06 1e-06 -2e-06 7.583066 13.646063 20.004477 67.608528 15.318426 18.563963 -1.049707 39.461239 -0.641145 -15.97555 2.805583 6.338428 2.243456 -5.255057 -3.180185 14.28282 -0.826649 6.952544 1e-05 -12.690637 1.2e-05 16.535364 -18.242508 2.431933 1.665673 -1.95592 -2.878307 4.727827 -4.170611 4.993912 11.020576 -7e-06 -2.2e-05 12.109189 -3.735756 -2.866847 -0.0 3e-06 -2e-06 1.292015 -1.928574 -1.49809 14.800149 0.567479 3.865583 14.242645 -1.341753 -6.660702 19.632164 0.143933 -0.648352 50.617981 -0.681969 -6.397935 0.353069 -1.511191 -0.031938 20.222805 3.684343 2.316599 18.787354 -2e-06 -5.6e-05 10.751671 -0.479865 1.397887 1e-06 1e-06 0.0 3.273889 0.30588 -0.580129 21.486776 11.830446 2.266121 8.162945 -7e-06 -2.8e-05 18.399229 -3.798968 -4.940691 2e-06 -3e-06 0.0 1.131382 6.574875 -41.311279 -0.226528 -0.199997 12.300962 -8.278766 7.838441 -2.325318 1.640037 -2.060513 -5.445225 -0.0 0.0 -3e-06 -8.183478 -3.117053 14.980292 -0.076496 0.883276 14.735564 3.179973 1.660012 21.93269 -1.346091 0.566724 -26.511702 1e-06 -0.0 -6e-06 
0.0 0.0 0.0 0.0 -0.0 0.0 -5.260306 99.737991 65.743324 0.856772 -11.131605 4.571609 1.153629 1.212165 -1.727482 -0.634062 3.828281 -5.591314 0.284824 2.568838 9.083344 -4.319221 3.619976 0.334986 -0.092569 0.759789 -3.709634 1.032805 -1.255323 -7.367736 7.7e-05 -2.2e-05 6e-06 0.017799 0.129833 0.003898 0.71489 -3.616001 -10.640713 -0.691051 3.860507 -10.635661 -12.031136 5.75739 19.955881 -63.759552 17.504515 13.503769 -1.772457 -19.307516 0.350494 0.91594 -1.318843 -21.716478 -5.882111 9.861304 0.70271 -10.936849 -0.360575 7.156282 1e-06 8.77482 4e-06 -16.744453 18.068432 5.976741 -1.844031 2.498504 -2.507281 -10.163603 4.678941 4.621097 -20.976044 -1e-06 4e-06 -21.226358 2.451688 -3.594017 0.0 -4e-06 -3e-06 -1.362687 2.240783 -0.74633 -21.334915 0.584923 3.008312 -13.821232 4e-06 7e-06 -23.887274 -0.24908 -0.839489 -61.227741 2.648379 -1.158052 -0.294033 1.679671 0.833249 -14.218203 0.093224 1.300571 -34.212112 -0.287548 0.967184 -20.033274 0.964556 1.21286 -1e-06 0.0 -0.0 -3.440403 0.788216 0.501646 -15.928165 -3.167289 2.999697 -6.338833 -0.0 4e-06 -18.123529 3.64817 -4.905696 -3e-06 0.0 -2e-06 7.114331 14.038957 20.109274 69.06057 15.205034 17.88821 -1.097973 39.455643 -0.606078 -15.972753 2.868623 5.608193 2.243537 -5.255023 -3.180044 14.282818 -0.826675 6.952595 -3.8e-05 -12.690624 1.3e-05 16.529367 -18.205418 2.488026 1.665668 -1.955917 -2.878306 4.727791 -4.170576 4.993909 11.020526 3.4e-05 -1e-05 12.10906 -3.735667 -2.866816 -0.0 -0.0 -2e-06 1.291972 -1.928543 -1.498095 14.800139 0.567504 3.865584 14.242568 -1.341693 -6.660676 19.632034 0.14403 -0.648249 50.520721 -0.623756 -6.479768 0.353006 -1.511145 -0.031947 20.222811 3.684361 2.31661 18.787271 5e-05 1.1e-05 10.751638 -0.479855 1.397928 -0.0 -3e-06 -0.0 3.273773 0.305973 -0.580125 21.486851 11.830425 2.266109 8.162927 1.9e-05 5e-06 18.399115 -3.798927 -4.940568 3e-06 -3e-06 -1e-06 2.931324 6.69489 -36.98901 -0.072555 -0.095316 10.094002 -6.834702 7.729378 -3.928238 1.640783 -2.162885 -5.151894 1e-06 -0.0 1e-06 -9.35535 -3.23746 15.491631 -0.172589 1.15327 19.139647 3.30018 0.589982 26.706451 -1.176869 0.614735 -15.413199 0.0 -0.0 -6e-06 
